name newpol_modifiedModel\angles_triclong4.mot
datacolumns 15
datarows 33
range 0.250000 0.262103
endheader
time  THx THy THz SCy SCz SCx ACy ACz ACx GHy GHz GHyy ELx PSy
0.250000	0.000000	0.000000	0.000000	-50.158759	19.786713	40.206039	62.176554	-6.240476	6.456294	-73.079300	56.592156	35.640891	40.750000	0.000000	
0.250378	0.000000	0.000000	0.000000	-54.079495	21.806196	52.801418	62.527088	-11.417254	7.468634	-62.988145	68.353764	32.977476	40.750000	0.000000	
0.250756	0.000000	0.000000	0.000000	-49.723146	19.730264	36.773568	63.038125	-2.565680	8.990798	-62.128901	53.779726	22.967835	40.750000	0.000000	
0.251135	0.000000	0.000000	0.000000	-43.357502	16.592026	27.442990	61.701586	-2.894744	3.988326	-65.570236	33.070124	17.376146	40.750000	0.000000	
0.251513	0.000000	0.000000	0.000000	-38.401074	14.171078	18.490569	60.253578	-1.475242	1.579816	-65.633219	17.116926	17.425987	40.750000	0.000000	
0.251891	0.000000	0.000000	0.000000	-28.187751	9.618259	8.632422	59.035088	-2.626536	-3.282478	71.581659	8.029597	-107.408286	40.750000	0.000000	
0.252269	0.000000	0.000000	0.000000	-31.214672	10.837933	10.848327	58.613044	-2.695850	-2.463009	57.155590	2.771737	-96.483405	40.750000	0.000000	
0.252648	0.000000	0.000000	0.000000	-41.141078	15.281410	22.905718	59.688592	-3.546944	1.158490	-87.929136	24.899859	45.796895	40.750000	0.000000	
0.253026	0.000000	0.000000	0.000000	-48.058964	18.693935	35.527552	61.551857	-5.375732	4.958796	-79.211249	49.663499	38.073545	40.750000	0.000000	
0.253404	0.000000	0.000000	0.000000	-52.909674	21.176760	40.439840	62.796214	-2.437788	10.830409	-67.862136	65.388862	27.896743	40.750000	0.000000	
0.253782	0.000000	0.000000	0.000000	-52.008286	20.899713	43.582389	63.381080	-5.178731	9.789314	-57.278394	60.497243	23.137089	40.750000	0.000000	
0.254160	0.000000	0.000000	0.000000	-45.674863	17.754974	33.876321	62.312213	-5.316229	4.525137	-62.836979	40.622322	20.128811	40.750000	0.000000	
0.254539	0.000000	0.000000	0.000000	-39.193633	14.600171	20.081367	60.777084	-1.510758	2.194845	-60.671250	19.957773	10.514583	40.750000	0.000000	
0.254917	0.000000	0.000000	0.000000	-28.151787	9.609173	8.500199	59.079844	-2.492560	-3.201781	70.901393	8.176347	-112.141158	40.750000	0.000000	
0.255295	0.000000	0.000000	0.000000	-29.196457	10.032616	7.817934	58.980713	-1.257773	-2.151636	67.050386	6.546256	-109.249913	40.750000	0.000000	
0.255673	0.000000	0.000000	0.000000	-31.379934	10.732860	9.801884	57.436943	-3.047440	-2.994027	137.641395	4.403863	179.491673	40.750000	0.000000	
0.256051	0.000000	0.000000	0.000000	-36.867306	12.881525	17.294115	55.997147	-6.520815	-4.082533	-160.050168	10.940236	125.888060	40.750000	0.000000	
0.256430	0.000000	0.000000	0.000000	-38.761341	13.918962	18.864881	57.568420	-4.632365	-1.577055	-118.463874	15.695369	78.069561	40.750000	0.000000	
0.256808	0.000000	0.000000	0.000000	-49.155360	19.330579	38.812452	62.220710	-6.069997	5.998435	-71.283517	52.862311	26.229070	40.750000	0.000000	
0.257186	0.000000	0.000000	0.000000	-53.549680	21.580475	52.269856	62.659406	-11.407031	7.300525	-61.226749	66.209339	18.940327	40.750000	0.000000	
0.257564	0.000000	0.000000	0.000000	-51.328446	20.542231	43.702412	63.163984	-6.391157	8.470631	-59.418388	58.645926	18.708111	40.750000	0.000000	
0.257943	0.000000	0.000000	0.000000	-39.243514	14.518433	20.574282	60.111297	-2.698787	1.144716	-72.999321	19.321211	27.262819	40.750000	0.000000	
0.258321	0.000000	0.000000	0.000000	-32.625838	11.416638	12.719408	58.448103	-3.361809	-2.457421	-31.007019	0.914305	-8.134459	40.750000	0.000000	
0.258699	0.000000	0.000000	0.000000	-31.300769	10.692623	9.989106	57.383105	-3.317232	-3.203511	137.133013	4.663913	-160.358614	40.750000	0.000000	
0.259077	0.000000	0.000000	0.000000	-31.507267	10.797579	8.959130	57.533763	-2.156035	-2.366610	138.590863	3.986566	-167.618473	40.750000	0.000000	
0.259455	0.000000	0.000000	0.000000	-38.366140	13.967339	19.976805	58.983281	-4.241726	-0.730192	-89.635106	15.631072	50.487532	40.750000	0.000000	
0.259834	0.000000	0.000000	0.000000	-45.939018	17.706559	32.037610	61.418507	-4.702151	4.069340	-76.911306	41.947188	40.600974	40.750000	0.000000	
0.260212	0.000000	0.000000	0.000000	-51.734576	20.657444	42.580983	62.859020	-5.488200	8.702870	-65.018166	60.857929	35.148458	40.750000	0.000000	
0.260590	0.000000	0.000000	0.000000	-52.447012	21.074310	47.860001	63.008085	-8.713415	8.066386	-59.795977	62.325871	29.293583	40.750000	0.000000	
0.260968	0.000000	0.000000	0.000000	-46.407586	18.074925	35.144738	62.227606	-5.769786	4.612305	-65.810567	43.128925	27.481743	40.750000	0.000000	
0.261346	0.000000	0.000000	0.000000	-30.514733	10.293109	7.003427	56.982221	-1.923053	-2.647954	133.976136	7.262209	174.887434	40.750000	0.000000	
0.261725	0.000000	0.000000	0.000000	-36.810210	13.151153	16.876492	58.060535	-3.992441	-1.604822	-107.485292	10.409684	44.944621	40.750000	0.000000	
0.262103	0.000000	0.000000	0.000000	-44.020170	16.697281	27.027263	60.593391	-3.352906	3.141878	-83.871210	35.178922	22.118976	40.750000	0.000000	
